<?xml version="1.0" encoding="UTF-8"?>
<svg width="163.86mm" height="188.62mm" version="1.1" viewBox="0 0 163.86 188.62" xmlns="http://www.w3.org/2000/svg" xmlns:cc="http://creativecommons.org/ns#" xmlns:dc="http://purl.org/dc/elements/1.1/" xmlns:rdf="http://www.w3.org/1999/02/22-rdf-syntax-ns#">
 <defs>
  <filter id="filter1131" x="-.00019047" y="-.00019047" width="1.0004" height="1.0004" color-interpolation-filters="sRGB">
   <feGaussianBlur stdDeviation="0.0014098512"/>
  </filter>
  <filter id="filter1135" x="-.00019047" y="-.00019047" width="1.0004" height="1.0004" color-interpolation-filters="sRGB">
   <feGaussianBlur stdDeviation="0.0014098512"/>
  </filter>
  <filter id="filter1139" x="-.00019047" y="-.00019047" width="1.0004" height="1.0004" color-interpolation-filters="sRGB">
   <feGaussianBlur stdDeviation="0.0014098512"/>
  </filter>
  <filter id="filter1143" x="-.00019047" y="-.00019047" width="1.0004" height="1.0004" color-interpolation-filters="sRGB">
   <feGaussianBlur stdDeviation="0.0014098512"/>
  </filter>
  <filter id="filter1147" x="-.00019047" y="-.00019047" width="1.0004" height="1.0004" color-interpolation-filters="sRGB">
   <feGaussianBlur stdDeviation="0.0014098512"/>
  </filter>
  <filter id="filter1151" x="-.00019047" y="-.00019047" width="1.0004" height="1.0004" color-interpolation-filters="sRGB">
   <feGaussianBlur stdDeviation="0.0014098512"/>
  </filter>
 </defs>
 <metadata>
  <rdf:RDF>
   <cc:Work rdf:about="">
    <dc:format>image/svg+xml</dc:format>
    <dc:type rdf:resource="http://purl.org/dc/dcmitype/StillImage"/>
    <dc:title/>
   </cc:Work>
  </rdf:RDF>
 </metadata>
 <g transform="translate(-24.187 -66.331)">
  <path d="m178.78 147.03c0 13.737-0.15329 102.1-0.15329 102.1l-49.338-38.481-23.931 34.086-21.453-30.873-50.268 32.952 2e-6 -99.786c1e-6 -40.08 32.491-72.571 72.571-72.571 40.08-2e-6 72.571 32.491 72.571 72.571z" fill="#fff" stroke-width=".26458"/>
 </g>
 <g transform="translate(-24.187 -66.331)" display="none">
  <rect x="-18.899" y="26.08" width="261.94" height="282.35" fill="#4182e4" opacity=".995" stroke="#000" stroke-width="5"/>
 </g>
 <g transform="translate(-24.187 -66.331)" fill="none" stroke="#000">
  <path d="m32.884 247.57s-6e-6 -61.844-6e-6 -101.3c2e-6 -39.454 32.661-71.437 72.949-71.437 40.289-1e-6 72.949 31.984 72.949 71.437 0 19.067-0.1533 100.87-0.1533 100.87" stroke-width="5"/>
  <g stroke-opacity=".20968">
   <path d="m106.97 76.351s-25.702 6.4256-25.324 54.807" stroke-width="5"/>
   <path d="m106.97 76.351s27.214 7.1815 26.836 55.563" stroke-width="5"/>
   <path d="m39.876 147.03 70.304 99.408" stroke-width="5"/>
   <g stroke-width="5">
    <path d="m84.289 140.23-50.649 106.59"/>
    <path d="m84.289 140.23 22.679 106.97"/>
    <path d="m84.289 140.23 94.341 106.92"/>
    <path d="m132.67 139.47-99.03 107.35"/>
    <path d="m132.67 139.47-25.702 107.72"/>
    <path d="m132.67 139.47 45.96 107.68"/>
    <path d="m171.98 150.06-138.34 96.762"/>
    <path d="m171.98 150.06-66.618 94.683"/>
    <path d="m39.876 147.03 134.6 95.96"/>
   </g>
  </g>
 </g>
 <g transform="translate(-24.187 -66.331)">
  <path d="m92.876 184.02c9.0913 10.034 19.107 10.982 30.335 0" fill="none" stroke="#000" stroke-width="5"/>
 </g>
 <g transform="translate(-24.187 -66.331)">
  <path d="m33.64 246.82 51.275-35.607 21.769 31.355 22.608-31.912 48.299 34.418" fill="none" stroke="#000" stroke-width="5"/>
 </g>
 <g transform="translate(-24.187 -66.331)" stroke-width=".26458">
  <circle cx="33.073" cy="146.84" r="8.8824" filter="url(#filter1151)"/>
  <circle cx="179.16" cy="147.41" r="8.8824" filter="url(#filter1147)"/>
  <circle cx="106.97" cy="75.217" r="8.8824" filter="url(#filter1143)"/>
  <circle cx="34.396" cy="245.31" r="8.8824" filter="url(#filter1139)"/>
  <circle cx="177.65" cy="245.68" r="8.8824" filter="url(#filter1135)"/>
  <circle cx="106.97" cy="246.06" r="8.8824" filter="url(#filter1131)"/>
 </g>
 <g transform="translate(-24.187 -66.331)" fill="#170b28">
  <ellipse cx="82.14" cy="141.26" rx="11.647" ry="21.46" stroke-width=".47093"/>
  <ellipse cx="133.68" cy="140.9" rx="11.647" ry="21.46" stroke-width=".47093"/>
 </g>
</svg>
